<?xml version="1.0" encoding="UTF-8"?><svg xmlns="http://www.w3.org/2000/svg" viewBox="0 0 1016 628"><defs><style>.d{fill:#fff;}</style></defs><g id="a"/><g id="b"><g><path class="d" d="M509.57,332.39c0-28.14-30.93-51.01-69.45-51.72-8.43-14.82-26.67-25.15-47.9-25.4-12.42-15.21-35.24-25.41-61.35-25.41-26.92,0-50.35,10.84-62.48,26.83-4.37-.94-8.95-1.44-13.69-1.44-27.2,0-49.66,16.55-53.2,38.01-33.25,7.02-57.14,26.25-57.14,48.9,0,28.58,38.03,51.75,84.95,51.75,1.68,0,3.34-.04,4.99-.1,12.4,15.25,35.25,25.48,61.41,25.48,22.77,0,43.04-7.76,56.09-19.83,10.05,3.93,21.54,6.16,33.75,6.16,23.89,0,45.02-8.54,57.95-21.64,36.93-1.94,66.06-24.29,66.06-51.6Z"/><path class="d" d="M713.54,436.46c0-15.72-17.28-28.49-38.79-28.89-4.71-8.28-14.9-14.05-26.75-14.19-6.93-8.49-19.68-14.19-34.27-14.19-15.04,0-28.12,6.05-34.9,14.99-2.44-.52-5-.81-7.64-.81-15.19,0-27.74,9.24-29.72,21.23-18.57,3.92-31.91,14.66-31.91,27.31,0,15.96,21.24,28.91,47.45,28.91,.94,0,1.86-.02,2.79-.05,6.93,8.52,19.69,14.23,34.3,14.23,12.72,0,24.04-4.34,31.33-11.08,5.61,2.19,12.03,3.44,18.85,3.44,13.34,0,25.14-4.77,32.37-12.08,20.63-1.08,36.9-13.57,36.9-28.82Z"/><path class="d" d="M829.35,205.43c-.2,0-.4,0-.6,0-3.67-18.14-24.44-33.02-52.08-38.31-5.19-22.37-36.43-39.57-74.22-39.57-41.42,0-74.99,20.66-74.99,46.15-33.72,0-62.24,13.7-71.67,32.54-34.73,4.03-61,22.79-61,45.33,0,25.49,33.57,46.15,74.99,46.15,4.65,0,9.19-.27,13.61-.77,7.88,20.29,37.53,35.38,72.92,35.38,23.55,0,44.55-6.68,58.3-17.13,7.92,1.75,16.45,2.71,25.35,2.71,27.55,0,51.62-9.15,64.65-22.78,7.75,1.67,16.08,2.59,24.76,2.59,41.42,0,74.99-20.66,74.99-46.15s-33.57-46.15-74.99-46.15Z"/></g></g><g id="c"/></svg>