<?xml version="1.0" encoding="UTF-8"?><svg xmlns="http://www.w3.org/2000/svg" viewBox="0 0 1000 1000"><defs><style>.d{fill:#74c174;}.e{letter-spacing:-.05em;}.f{letter-spacing:-.09em;}.g{font-family:Futura-Medium, Futura;font-size:369.03px;}</style></defs><g id="a"/><g id="b"><g><text class="g" transform="translate(210.45 943.51)"><tspan class="f" x="0" y="0">K</tspan><tspan class="e" x="211.61" y="0">oll</tspan></text><g><path class="d" d="M752.38,333.76c0,33.38-6.2,65.31-17.53,94.7-35.59-63.3-94.58-110.61-163.48-131.79,42.33-50.12,66.31-114.07,66.85-180.14,68.97,47.55,114.16,127.11,114.16,217.23Z"/><path class="d" d="M752.38,333.76c0,33.38-6.2,65.31-17.53,94.7-35.59-63.3-94.58-110.61-163.48-131.79,42.33-50.12,66.31-114.07,66.85-180.14,68.97,47.55,114.16,127.11,114.16,217.23Z"/><path class="d" d="M500.09,484.85c0,36.63-7.88,71.85-23.42,104.69l-3.57,7.54c-97.26-5.65-180.36-63.97-221.21-146.87-15.99-32.43-25.52-68.63-26.88-106.92-.11-3.16-.17-6.33-.17-9.53,0-33.16,6.13-64.86,17.31-94.1h12.74c68.17,0,133.83,28.73,180.1,78.83,10.74,11.61,20.36,24.26,28.59,37.61l.45,.72c23.59,38.41,36.05,82.68,36.05,128.02Z"/><path class="d" d="M500.09,484.85c0,36.63-7.88,71.85-23.42,104.69l-3.57,7.54c-97.26-5.65-180.36-63.97-221.21-146.87-15.99-32.43-25.52-68.63-26.88-106.92-.11-3.16-.17-6.33-.17-9.53,0-33.16,6.13-64.86,17.31-94.1h12.74c68.17,0,133.83,28.73,180.1,78.83,10.74,11.61,20.36,24.26,28.59,37.61l.45,.72c23.59,38.41,36.05,82.68,36.05,128.02Z"/><path class="d" d="M601.09,114.25c0,67.72-28.4,133.05-77.94,179.29-11.55,10.77-24.09,20.41-37.41,28.73-7.15-10.12-15.01-19.84-23.44-28.98-52.18-56.5-125.75-89.4-202.5-90.74,45.49-79.2,130.92-132.55,228.82-132.55,40.03,0,77.98,8.92,111.95,24.87l.37,10.5c.09,3.01,.15,6,.15,8.88Z"/><path class="d" d="M601.09,114.25c0,67.72-28.4,133.05-77.94,179.29-11.55,10.77-24.09,20.41-37.41,28.73-7.15-10.12-15.01-19.84-23.44-28.98-52.18-56.5-125.75-89.4-202.5-90.74,45.49-79.2,130.92-132.55,228.82-132.55,40.03,0,77.98,8.92,111.95,24.87l.37,10.5c.09,3.01,.15,6,.15,8.88Z"/><path class="d" d="M714.45,470.09v.02c-42.02,69.45-115.16,117.95-200.07,126.18,15.18-35.2,22.87-72.65,22.87-111.43,0-45.81-11.05-90.66-32.14-130.88,12.74-7.95,24.85-16.9,36.2-26.82,72.29,15.84,134.43,64.4,167.38,131.27l5.76,11.66Z"/><path class="d" d="M714.45,470.09v.02c-42.02,69.45-115.16,117.95-200.07,126.18,15.18-35.2,22.87-72.65,22.87-111.43,0-45.81-11.05-90.66-32.14-130.88,12.74-7.95,24.85-16.9,36.2-26.82,72.29,15.84,134.43,64.4,167.38,131.27l5.76,11.66Z"/></g></g></g><g id="c"/></svg>