<?xml version="1.0" encoding="UTF-8"?><svg xmlns="http://www.w3.org/2000/svg" viewBox="0 0 1000 1000"><defs><style>.d{font-family:Futura-Medium, Futura;font-size:330.28px;}.e{fill:#74c174;}.f{letter-spacing:-.05em;}.g{letter-spacing:-.06em;}</style></defs><g id="a"/><g id="b"><g><g><path class="e" d="M760.27,323.45c0,33.21-6.17,64.98-17.45,94.22-35.41-62.99-94.11-110.06-162.67-131.13,42.12-49.87,65.98-113.5,66.52-179.24,68.63,47.32,113.59,126.48,113.59,216.15Z"/><path class="e" d="M760.27,323.45c0,33.21-6.17,64.98-17.45,94.22-35.41-62.99-94.11-110.06-162.67-131.13,42.12-49.87,65.98-113.5,66.52-179.24,68.63,47.32,113.59,126.48,113.59,216.15Z"/><path class="e" d="M509.24,473.79c0,36.45-7.84,71.49-23.31,104.17l-3.55,7.5c-96.77-5.62-179.47-63.65-220.11-146.14-15.91-32.27-25.4-68.29-26.74-106.39-.11-3.14-.17-6.3-.17-9.48,0-32.99,6.1-64.54,17.23-93.63h12.68c67.83,0,133.17,28.59,179.21,78.44,10.68,11.55,20.26,24.14,28.44,37.43l.44,.72c23.47,38.22,35.87,82.27,35.87,127.38Z"/><path class="e" d="M509.24,473.79c0,36.45-7.84,71.49-23.31,104.17l-3.55,7.5c-96.77-5.62-179.47-63.65-220.11-146.14-15.91-32.27-25.4-68.29-26.74-106.39-.11-3.14-.17-6.3-.17-9.48,0-32.99,6.1-64.54,17.23-93.63h12.68c67.83,0,133.17,28.59,179.21,78.44,10.68,11.55,20.26,24.14,28.44,37.43l.44,.72c23.47,38.22,35.87,82.27,35.87,127.38Z"/><path class="e" d="M609.73,105.03c0,67.39-28.26,132.39-77.55,178.39-11.5,10.72-23.97,20.31-37.22,28.59-7.12-10.07-14.93-19.74-23.33-28.83-51.92-56.22-125.13-88.96-201.5-90.29,45.26-78.81,130.26-131.89,227.69-131.89,39.83,0,77.59,8.87,111.39,24.75l.37,10.44c.09,2.99,.15,5.97,.15,8.83Z"/><path class="e" d="M609.73,105.03c0,67.39-28.26,132.39-77.55,178.39-11.5,10.72-23.97,20.31-37.22,28.59-7.12-10.07-14.93-19.74-23.33-28.83-51.92-56.22-125.13-88.96-201.5-90.29,45.26-78.81,130.26-131.89,227.69-131.89,39.83,0,77.59,8.87,111.39,24.75l.37,10.44c.09,2.99,.15,5.97,.15,8.83Z"/><path class="e" d="M722.52,459.09v.02c-41.81,69.11-114.59,117.36-199.08,125.55,15.1-35.02,22.75-72.29,22.75-110.88,0-45.58-11-90.21-31.98-130.23,12.68-7.91,24.73-16.82,36.02-26.69,71.93,15.77,133.76,64.08,166.55,130.62l5.73,11.61Z"/><path class="e" d="M722.52,459.09v.02c-41.81,69.11-114.59,117.36-199.08,125.55,15.1-35.02,22.75-72.29,22.75-110.88,0-45.58-11-90.21-31.98-130.23,12.68-7.91,24.73-16.82,36.02-26.69,71.93,15.77,133.76,64.08,166.55,130.62l5.73,11.61Z"/></g><text class="d" transform="translate(138.52 919.69)"><tspan class="f" x="0" y="0">Mit</tspan><tspan class="g" x="435.61" y="0">r</tspan><tspan class="f" x="538.71" y="0">a</tspan></text></g></g><g id="c"/></svg>