<svg width="219" height="219" viewBox="0 0 219 219" fill="none" xmlns="http://www.w3.org/2000/svg">
<path fill-rule="evenodd" clip-rule="evenodd" d="M69.9897 18.2491H149.103C180.037 18.2491 200.751 39.9666 200.751 72.2691V146.829C200.751 179.032 180.037 200.749 149.103 200.749H69.9897C39.056 200.749 18.251 179.032 18.251 146.829V72.2691C18.251 39.9666 39.056 18.2491 69.9897 18.2491ZM104.3 136.783L147.643 93.4391C150.746 90.3366 150.746 85.3178 147.643 82.1241C144.541 79.0216 139.431 79.0216 136.328 82.1241L98.6422 119.81L82.6735 103.842C79.571 100.739 74.461 100.739 71.3585 103.842C68.256 106.944 68.256 111.963 71.3585 115.157L93.076 136.783C94.6272 138.334 96.6347 139.064 98.6422 139.064C100.741 139.064 102.748 138.334 104.3 136.783Z" fill="#739A4C"/>
</svg>
