<svg width="25" height="25" viewBox="0 0 25 25" fill="none" xmlns="http://www.w3.org/2000/svg">
<path fill-rule="evenodd" clip-rule="evenodd" d="M9.76708 20.8624L18.9196 9.0265C19.417 8.38823 19.5938 7.65031 19.428 6.89895C19.2843 6.21589 18.8643 5.56643 18.2342 5.07373L16.6978 3.85319C15.3603 2.78942 13.7022 2.90139 12.7516 4.12193L11.7236 5.45557C11.5909 5.62242 11.6241 5.86877 11.7899 6.00314C11.7899 6.00314 14.3875 8.0859 14.4428 8.13069C14.6197 8.29865 14.7523 8.5226 14.7855 8.79135C14.8407 9.31764 14.476 9.81033 13.9343 9.87752C13.6801 9.91111 13.4369 9.83273 13.2601 9.68716L10.5298 7.51482C10.3971 7.41516 10.1982 7.43643 10.0876 7.57081L3.5991 15.969C3.17906 16.4953 3.03536 17.1784 3.17906 17.839L4.00809 21.4335C4.05231 21.6238 4.21811 21.7582 4.41708 21.7582L8.06481 21.7134C8.72803 21.7022 9.34704 21.3999 9.76708 20.8624ZM14.8747 19.743H20.8227C21.403 19.743 21.875 20.2211 21.875 20.809C21.875 21.398 21.403 21.875 20.8227 21.875H14.8747C14.2944 21.875 13.8224 21.398 13.8224 20.809C13.8224 20.2211 14.2944 19.743 14.8747 19.743Z" fill="#200E32"/>
</svg>
