<svg width="28" height="28" viewBox="0 0 28 28" fill="none" xmlns="http://www.w3.org/2000/svg">
<path d="M10.6572 24.2357V20.6684C10.6572 19.7577 11.4009 19.0195 12.3182 19.0195H15.6714C16.1119 19.0195 16.5344 19.1932 16.8458 19.5025C17.1573 19.8117 17.3323 20.2311 17.3323 20.6684V24.2357C17.3295 24.6143 17.4791 24.9784 17.7478 25.247C18.0165 25.5157 18.3821 25.6668 18.7634 25.6668H21.0511C22.1196 25.6696 23.1452 25.2501 23.9017 24.5011C24.6582 23.7521 25.0833 22.735 25.0833 21.6743V11.5115C25.0833 10.6547 24.7008 9.84198 24.0387 9.29228L16.2564 3.12201C14.9026 2.04015 12.963 2.07508 11.6496 3.20497L4.04485 9.29228C3.35154 9.82577 2.93715 10.6409 2.91667 11.5115V21.6639C2.91667 23.8747 4.72195 25.6668 6.94887 25.6668H9.18434C9.97644 25.6668 10.6202 25.0324 10.6259 24.2461L10.6572 24.2357Z" fill="#47593B"/>
</svg>
