<svg width="28" height="28" viewBox="0 0 28 28" fill="none" xmlns="http://www.w3.org/2000/svg">
<path fill-rule="evenodd" clip-rule="evenodd" d="M10.3833 2.3335H17.5817C20.7433 2.3335 23.2983 3.58183 23.3333 6.75516V24.4652C23.3333 24.6635 23.2867 24.8618 23.1933 25.0368C23.0417 25.3168 22.785 25.5268 22.47 25.6202C22.1667 25.7135 21.8283 25.6668 21.5483 25.5035L13.9883 21.7235L6.41667 25.5035C6.24283 25.5957 6.04333 25.6552 5.845 25.6552C5.19167 25.6552 4.66667 25.1185 4.66667 24.4652V6.75516C4.66667 3.58183 7.23333 2.3335 10.3833 2.3335ZM9.59 11.2235H18.375C18.8767 11.2235 19.285 10.814 19.285 10.3018C19.285 9.7885 18.8767 9.38016 18.375 9.38016H9.59C9.08833 9.38016 8.68 9.7885 8.68 10.3018C8.68 10.814 9.08833 11.2235 9.59 11.2235Z" fill="#47593B"/>
</svg>
